HIERARCHY
ROOT Hips
{
  OFFSET 90.7885 88.945 -76.2838
  CHANNELS 6 Xposition Yposition Zposition Zrotation Xrotation Yrotation
  JOINT LeftUpLeg
  {
    OFFSET 8.64259 1.95398 -2.38835
    CHANNELS 3 Zrotation Xrotation Yrotation
    JOINT LeftLeg
    {
      OFFSET 43.7702 0 0
      CHANNELS 3 Zrotation Xrotation Yrotation
      JOINT LeftFoot
      {
        OFFSET 40.6238 0 0
        CHANNELS 3 Zrotation Xrotation Yrotation
        JOINT LeftToeBase
        {
          OFFSET 12.7242 0 0
          CHANNELS 3 Zrotation Xrotation Yrotation
          End Site
          {
            OFFSET 0 0 0
          }
        }
      }
    }
  }
  JOINT RightUpLeg
  {
    OFFSET -8.2249 1.95398 -2.59336
    CHANNELS 3 Zrotation Xrotation Yrotation
    JOINT RightLeg
    {
      OFFSET 43.5653 0 0
      CHANNELS 3 Zrotation Xrotation Yrotation
      JOINT RightFoot
      {
        OFFSET 40.6238 0 0
        CHANNELS 3 Zrotation Xrotation Yrotation
        JOINT RightToeBase
        {
          OFFSET 12.7242 0 0
          CHANNELS 3 Zrotation Xrotation Yrotation
          End Site
          {
            OFFSET 0 0 0
          }
        }
      }
    }
  }
  JOINT Spine
  {
    OFFSET 0.165834 0.87714 6.61349
    CHANNELS 3 Zrotation Xrotation Yrotation
    JOINT Spine1
    {
      OFFSET 7.38963 1.71661e-005 0
      CHANNELS 3 Zrotation Xrotation Yrotation
      JOINT Spine2
      {
        OFFSET 11.9445 1.14441e-005 0
        CHANNELS 3 Zrotation Xrotation Yrotation
        JOINT Spine3
        {
          OFFSET 14.7254 4.19617e-005 0
          CHANNELS 3 Zrotation Xrotation Yrotation
          JOINT Spine4
          {
            OFFSET 10.9679 0 0
            CHANNELS 3 Zrotation Xrotation Yrotation
            JOINT RightShoulder
            {
              OFFSET 2.46616 -1.6653 3.69651
              CHANNELS 3 Zrotation Xrotation Yrotation
              JOINT RightArm
              {
                OFFSET 13.0012 0 0
                CHANNELS 3 Zrotation Xrotation Yrotation
                JOINT RightForeArm
                {
                  OFFSET 28.7848 1.52588e-005 0
                  CHANNELS 3 Zrotation Xrotation Yrotation
                  JOINT RightHand
                  {
                    OFFSET 26.5688 1.52588e-005 0
                    CHANNELS 3 Zrotation Xrotation Yrotation
                    End Site
                    {
                      OFFSET 0 0 0
                    }
                  }
                }
              }
            }
            JOINT LeftShoulder
            {
              OFFSET 2.38034 -1.29275 -3.7523
              CHANNELS 3 Zrotation Xrotation Yrotation
              JOINT LeftArm
              {
                OFFSET 16.3182 6.10352e-005 0
                CHANNELS 3 Zrotation Xrotation Yrotation
                JOINT LeftForeArm
                {
                  OFFSET 27.0901 0 0
                  CHANNELS 3 Zrotation Xrotation Yrotation
                  JOINT LeftHand
                  {
                    OFFSET 24.5451 1.52588e-005 0
                    CHANNELS 3 Zrotation Xrotation Yrotation
                    End Site
                    {
                      OFFSET 0 0 0
                    }
                  }
                }
              }
            }
            JOINT Neck
            {
              OFFSET 5.0226 -0.0266342 0
              CHANNELS 3 Zrotation Xrotation Yrotation
              JOINT Head
              {
                OFFSET 6.69363 2.86102e-005 0
                CHANNELS 3 Zrotation Xrotation Yrotation
                End Site
                {
                  OFFSET 0 0 0
                }
              }
            }
          }
        }
      }
    }
  }
}
MOTION
Frames:	18
Frame Time:	0.0416667
-265.669 98.1687 -249.41 -100.481 -57.0991 -98.7626 -176.765 -2.6233 91.9139 -17.7052 5.35197 1.07632 69.8624 3.98306 -1.70011 29.3154 2.91409 -4.40568 169.823 -4.87152 86.4739 -10.8992 -15.2617 -1.33109 67.9042 -4.82534 0.163173 20.4592 -1.08345 3.81006 0.380579 7.86009 -90.4395 11.1552 0.553358 -0.928728 -0.515985 0.511965 -0.952199 -23.0503 0.806898 -0.719492 -3.03768 0.8069 -0.719508 89.65 -30.4918 -107.26 40.3472 -9.64812 -3.03505 3.21407 -15.5593 -16.7297 -21.9871 1.20614 -16.4579 -88.5269 -55.2355 81.8805 -21.2206 15.569 -9.35612 6.34892 4.43145 -14.6792 1.51379 -0.215417 -8.0499 2.52015 11.2255 -0.993246 -8.77243 11.0436 3.74744 
-265.811 98.0124 -249.465 -99.2285 -57.137 -97.5904 -176.093 -0.881787 92.5558 -19.7566 5.90578 0.34891 70.7467 4.37155 -1.85418 29.8993 3.00812 -4.69882 170.175 -3.8569 86.8227 -11.6957 -15.0325 -1.33147 68.1717 -5.03247 -0.0193339 21.0219 -1.11651 3.80174 0.384535 7.81462 -90.5094 11.2461 0.528268 -1.06651 -0.425254 0.480822 -1.08873 -22.9588 0.824354 -0.858458 -2.94614 0.824359 -0.858466 89.6971 -30.2498 -107.261 39.9912 -9.64509 -3.43333 3.20394 -15.6388 -16.5965 -23.2946 1.09913 -15.1874 -88.9195 -56.4342 81.5358 -20.0266 15.4561 -9.87673 7.10952 6.02161 -16.1508 2.92133 -0.159457 -5.82231 2.73321 11.3411 -0.255472 -8.5735 11.0496 3.62344 
-265.761 97.7923 -249.069 -98.8191 -57.1146 -97.4013 -176.162 0.00977408 92.1234 -21.417 5.6459 0.253062 71.4416 4.83299 -1.34574 31.2074 2.76593 -4.69008 170.223 -2.73402 86.552 -13.8653 -14.9005 -1.45699 69.1462 -5.39025 0.294819 21.7469 -1.04464 3.56156 0.362398 7.82711 -90.5124 11.2207 0.48301 -1.06743 -0.450577 0.435555 -1.08766 -22.9839 0.781466 -0.87294 -2.97125 0.781481 -0.872934 89.8393 -30.09 -107.044 39.9329 -9.93802 -3.76199 3.10316 -15.4053 -17.1209 -23.9981 0.939649 -13.9221 -88.8252 -56.1722 81.622 -20.207 15.1095 -10.0262 7.9268 7.08087 -17.4277 2.56098 -0.172251 -6.27084 3.31871 11.3265 -0.319071 -9.06617 11.0239 3.67589 
-265.32 97.3394 -248.728 -98.1575 -57.944 -97.1561 -175.883 2.21277 92.033 -25.1705 5.91488 -0.128815 73.0203 5.79454 -1.9203 31.4143 2.69707 -4.63831 169.561 -0.544162 85.6216 -17.534 -15.3261 -1.09357 71.0815 -6.0432 -0.0799552 21.5259 -0.844291 3.19181 0.351502 7.88239 -90.5979 11.1097 0.422158 -1.23081 -0.561742 0.367577 -1.2482 -23.0938 0.772525 -1.04707 -3.08118 0.772536 -1.04707 90.9424 -28.9467 -105.264 40.5437 -9.80134 -4.32237 2.27964 -16.4356 -17.7456 -23.5881 0.554841 -12.2968 -89.6362 -56.4689 80.5421 -19.9863 15.5207 -11.419 8.12126 7.77271 -17.7547 2.10377 -0.159033 -6.08878 4.37346 10.9743 0.365216 -9.05953 10.5455 3.62069 
-264.632 96.5889 -248.65 -98.0538 -58.3735 -96.2658 -174.267 5.98176 92.8307 -31.5226 8.51855 -1.07076 74.159 6.79031 0.951389 32.7509 3.29459 -5.94586 169.656 1.64404 85.9682 -21.6675 -14.5046 -0.776693 72.692 -6.5455 0.26693 22.6656 -0.928175 3.19522 0.331745 7.94972 -90.8164 10.9737 0.282458 -1.6511 -0.698318 0.209515 -1.66194 -23.2266 0.765579 -1.48994 -3.21391 0.765579 -1.48994 91.0376 -28.2669 -105.325 40.1178 -8.86794 -3.81176 1.58142 -18.3241 -18.7142 -23.6808 0.323033 -11.6114 -89.9334 -57.0448 80.2358 -19.8128 16.0252 -11.6633 7.82758 6.50471 -18.6565 5.0643 -0.156603 -5.38644 5.00617 10.7837 1.01649 -8.68221 10.2281 3.81184 
-263.578 95.7871 -248.566 -96.3155 -58.0049 -94.4076 -172.567 11.1985 93.2644 -39.0692 5.62817 -2.50914 73.7631 6.36163 -0.657712 32.0679 3.36125 -5.8481 169.6 5.35865 85.6303 -26.319 -15.9107 -0.540936 73.6389 -6.89706 0.137826 24.2584 -0.851697 2.79295 0.337334 7.98297 -90.924 10.9066 0.244338 -1.86107 -0.765695 0.162216 -1.87003 -23.2918 0.792306 -1.70168 -3.27912 0.792303 -1.70169 91.4072 -27.8735 -104.712 39.7519 -9.17967 -4.03939 1.21651 -16.2337 -19.8339 -23.7343 0.926678 -14.2584 -89.7711 -56.8879 80.4316 -19.7041 15.7143 -11.4104 10.1844 10.7864 -21.2744 3.13203 -0.166036 -5.91929 6.80859 10.9049 0.426074 -9.32299 10.3666 4.43543 
-262.332 94.7384 -248.347 -94.6748 -57.5802 -92.9561 -170.094 16.5766 93.66 -46.7804 2.01766 -4.50456 73.9791 6.37694 -0.214334 33.5423 2.75756 -5.31039 168.652 9.33505 84.4476 -31.2171 -17.8116 0.160707 75.5729 -7.79172 0.136399 24.5943 -0.853118 2.73305 0.28857 8.0614 -91.069 10.7469 0.0817711 -2.13312 -0.925831 -0.0121655 -2.13466 -23.4482 0.718952 -2.01003 -3.43553 0.71896 -2.01003 91.6587 -27.4572 -104.341 38.5085 -8.48923 -4.30636 0.83479 -17.2604 -21.8112 -24.5325 0.612513 -12.569 -90.3952 -56.8112 79.5508 -20.249 15.2031 -10.6377 11.8702 12.8863 -23.3356 4.01365 -0.117195 -4.90277 9.38128 11.1948 0.668826 -10.8625 10.5134 4.32609 
-260.922 93.3338 -247.917 -94.3357 -57.132 -93.0534 -167.432 21.1573 94.2287 -54.1974 0.0139251 -5.64569 75.0952 6.69039 -0.578761 32.0667 1.03728 -2.25848 168.301 13.0646 82.902 -37.2195 -19.4375 0.0887994 77.9354 -8.92806 -0.213849 25.8338 -0.792014 2.40483 0.0847881 8.26284 -91.1109 10.3397 -0.339421 -2.17733 -1.333 -0.434912 -2.1603 -23.8536 0.330475 -2.17871 -3.84098 0.330474 -2.17871 91.8919 -27.4147 -103.873 37.3538 -7.14043 -5.06283 -0.411674 -19.108 -23.9312 -25.4546 0.336809 -11.4719 -90.1301 -55.0354 79.5744 -21.4607 16.36 -10.013 12.8468 14.0081 -25.3751 5.38245 -0.0583497 -3.88099 12.0704 12.0233 0.60918 -11.9164 11.1971 5.00774 
-259.381 91.8077 -247.392 -93.0499 -56.7134 -92.5713 -165.11 26.887 96.0427 -61.3941 -2.36407 -5.85644 75.8351 6.40331 -3.57597 31.3937 -0.828517 0.793941 167.928 17.3152 81.0833 -42.8281 -20.7066 -0.00512509 79.8412 -9.80588 0.354941 26.694 -0.697648 2.0406 -0.132895 8.38041 -91.167 10.0996 -0.79644 -2.25019 -1.57295 -0.894694 -2.21299 -24.0926 -0.0835425 -2.38545 -4.07992 -0.0835638 -2.38547 91.83 -27.3768 -104.015 36.094 -5.14983 -4.80199 -2.19296 -20.3066 -26.9116 -25.6571 0.344465 -11.8549 -90.5075 -55.107 79.0551 -19.1554 18.1448 -10.2403 12.5203 14.6312 -25.167 6.69431 0.0432644 -2.68265 13.1474 13.2076 0.787118 -11.9069 12.1195 7.00734 
-257.808 89.8443 -246.438 -92.6055 -55.4651 -93.3087 -163.65 31.3004 99.5126 -66.4443 -4.02219 -5.25843 77.9773 6.95748 -4.65844 30.8919 0.893374 -1.82361 167.974 21.5663 78.4774 -49.3203 -23.1092 -0.630668 82.8102 -11.4224 -0.318996 25.2378 -1.17893 3.34751 -0.268519 8.53548 -91.1502 9.7876 -1.05617 -2.19734 -1.88468 -1.15182 -2.14878 -24.4056 -0.34715 -2.41304 -4.39293 -0.347168 -2.41307 91.9152 -27.3431 -103.849 35.4657 -3.54635 -4.37346 -3.37564 -17.5487 -29.5218 -26.2678 0.857092 -13.4818 -90.7382 -53.271 78.3455 -20.6323 16.1744 -9.92004 14.0576 18.5415 -24.3648 10.2705 0.29324 -0.869482 13.5689 14.2551 1.44301 -11.7527 12.8513 8.52693 
-255.98 87.9655 -244.835 -91.6971 -52.9009 -94.2198 -163.249 34.3531 104.055 -67.7073 -2.47359 -4.7424 75.6171 6.39377 -1.05087 33.8919 3.08365 -5.93059 168.753 25.9609 74.7303 -55.0076 -26.6452 -1.84153 84.8306 -12.5788 -0.236477 25.4927 -1.12499 3.1894 -0.217027 8.61623 -91.1552 9.62701 -0.954225 -2.21679 -2.04539 -1.05086 -2.17267 -24.5658 -0.244104 -2.40097 -4.55312 -0.244102 -2.40098 92.9438 -26.5888 -101.946 34.8281 -2.26858 -3.31255 -4.84817 -17.9312 -33.0207 -29.3693 0.691601 -11.9434 -91.453 -54.2858 77.5418 -19.2492 14.8366 -9.58416 14.0319 19.2442 -23.2394 11.8886 0.378518 -0.650598 13.9981 15.4474 3.33389 -12.5052 13.3875 9.44842 
-254.083 85.4478 -243.489 -87.9744 -50.2308 -92.2945 -163.146 38.544 110.664 -66.7465 -3.03756 -4.82602 74.0304 5.77637 -0.325497 32.2546 2.97308 -5.2999 171.726 32.3038 72.0175 -61.293 -27.6825 -3.18069 86.7304 -13.5006 0.472724 26.546 -0.986326 2.7154 -0.216517 8.53918 -91.1111 9.7821 -0.934727 -2.12994 -1.89016 -1.02755 -2.08677 -24.4118 -0.251568 -2.31229 -4.3992 -0.251565 -2.3123 92.3939 -27.4399 -102.815 32.4374 -0.74213 -1.92775 -5.4988 -17.6247 -35.037 -28.4282 0.879884 -12.9591 -90.8415 -53.8893 78.3279 -18.805 11.3301 -7.98597 14.8948 18.5026 -23.2992 13.0849 0.346804 -1.14729 15.561 17.4144 5.16429 -13.2826 14.707 9.36002 
-251.319 82.8852 -242.155 -83.8 -51.655 -91.2829 -167.584 42.109 115.433 -61.5509 -3.69252 -3.22438 69.1326 4.12043 0.417064 31.9863 2.94253 -5.17608 174.023 38.4128 66.4049 -66.4475 -27.6754 -3.97726 88.3306 -13.9914 1.17841 28.7615 -0.639877 1.51084 -0.692659 8.42319 -90.8661 10.013 -1.77417 -1.57265 -1.65755 -1.84166 -1.49304 -24.1904 -1.2196 -2.03304 -4.17771 -1.21961 -2.03305 91.0657 -30.0135 -104.636 27.8604 0.745927 -0.300863 -5.51463 -15.1458 -35.7885 -24.2153 1.22096 -15.4658 -88.609 -52.3995 81.2593 -18.2186 4.58394 -5.08118 18.297 17.2875 -27.3429 12.6316 0.11638 -2.79881 20.3823 19.4221 4.70178 -15.3644 16.3736 9.20154 
-248.602 81.1959 -239.796 -80.6222 -50.9172 -89.8854 -171.145 42.8272 122.022 -53.8396 -0.651763 -1.43664 65.0037 2.78022 2.14577 31.9899 2.16737 -3.98043 177.36 41.5606 61.9209 -68.251 -27.8205 -5.32999 88.4003 -14.0596 1.45743 31.3093 -0.377836 0.304393 -0.619044 8.32334 -90.7465 10.2164 -1.57423 -1.34844 -1.45418 -1.63204 -1.27785 -23.988 -1.09627 -1.75916 -3.97534 -1.09625 -1.75915 91.3341 -28.4484 -104.658 25.8615 1.7804 4.8171 -5.70937 -13.4784 -37.1478 -19.2068 1.41283 -19.2044 -86.7132 -50.3397 83.7175 -15.8496 -3.9676 2.12523 24.5633 13.6917 -41.9776 5.46677 -0.147586 -5.05108 23.9879 20.5008 6.50549 -15.9841 16.6472 8.30195 
-245.532 80.447 -236.834 -78.6382 -52.1103 -88.8665 -174.795 43.7024 127.918 -46.7858 7.80583 0.924614 60.8407 1.16853 3.80535 28.7728 3.65037 -5.30801 179.291 41.2202 58.3375 -66.8728 -26.0624 -6.87284 87.4412 -13.767 1.89359 33.9329 0.193651 -1.87702 -0.323844 8.13073 -90.7203 10.604 -0.976186 -1.34255 -1.06722 -1.03431 -1.29829 -23.5977 -0.527619 -1.5738 -3.58502 -0.527618 -1.57381 92.7664 -24.3097 -103.094 24.943 -0.330689 15.2579 -6.814 -12.2134 -41.5921 -11.7602 1.00674 -24.9681 -85.7024 -46.3001 84.6272 -9.4624 -5.14227 8.60859 25.4275 6.28515 -58.2792 5.9389 -0.125448 -4.65633 23.9776 19.5444 9.23593 -15.4172 14.9397 7.34486 
-242.169 81.0936 -232.66 -79.4312 -54.2223 -90.0004 -176.355 42.3337 130.58 -40.3117 15.8402 2.72872 59.5434 0.681217 5.34811 23.9332 5.22441 -6.15675 178.824 36.216 56.3134 -60.9624 -22.4876 -9.09535 84.3007 -12.6352 2.78557 36.9196 0.875145 -4.85898 -0.0233375 7.95112 -90.5936 10.9692 -0.321324 -1.15079 -0.702231 -0.371657 -1.13555 -23.2333 0.0393554 -1.19417 -3.22069 0.0393664 -1.19416 94.8477 -18.3717 -100.411 28.6393 -10.1195 26.2551 -9.23941 -12.3118 -45.5412 -9.55829 0.746563 -28.4845 -84.4689 -37.3557 85.3172 -3.53131 6.23073 10.2257 23.1516 -0.456311 -68.6414 3.3189 -0.356005 -9.97893 20.9546 16.6475 9.6053 -14.4933 12.3041 7.4885 
-238.04 83.2018 -227.006 -82.7028 -57.5698 -92.0855 -175.508 40.2883 130.47 -34.2251 19.0549 2.93635 57.3234 0.0422971 5.57986 22.2046 5.12087 -5.53866 175.763 26.8366 55.8383 -50.6909 -23.0155 -12.0307 73.3856 -8.28787 1.85074 42.9276 1.04358 -8.39041 -0.130531 7.91827 -90.3248 11.0359 -0.410414 -0.606811 -0.635128 -0.436711 -0.588167 -23.1693 -0.209058 -0.702096 -3.15668 -0.209079 -0.702106 95.9587 -12.059 -99.8968 38.2314 -19.9631 34.8829 -14.0267 -11.5866 -51.361 -8.06644 0.368253 -31.0195 -83.0287 -22.4325 85.4455 -1.24226 21.1557 11.5091 23.6921 -7.29099 -77.8805 -0.0455829 -0.311771 -15.2315 18.3757 13.5838 4.09098 -13.7644 11.097 8.87613 
-233.244 86.7581 -220.102 -87.4795 -60.2379 -95.3804 -173.017 34.5538 127.15 -26.6853 20.0994 2.26372 52.3554 -2.04436 4.99039 24.8913 4.25332 -5.16772 170.891 16.8378 54.9364 -36.0887 -27.4948 -13.8782 54.7424 -0.859254 2.60383 46.8235 0.229458 -8.10053 -0.201691 7.79794 -90.4491 11.2746 -0.610594 -0.834236 -0.396482 -0.646705 -0.806553 -22.9299 -0.331653 -0.979146 -2.91724 -0.331643 -0.979163 97.2796 -5.57995 -98.5885 45.7649 -26.2708 42.0439 -19.3411 -9.58959 -57.3632 -7.83551 0.268861 -33.2907 -83.3654 -15.3954 82.9963 1.24894 32.2886 14.855 20.208 -13.8215 -87.3181 -1.58328 -0.199942 -19.7712 11.9115 10.6939 1.47272 -12.5686 9.10278 11.0003 
